<?xml version="1.0" encoding="UTF-8"?>
<svg xmlns="http://www.w3.org/2000/svg" xmlns:xlink="http://www.w3.org/1999/xlink" viewBox="110 368 950 60">
<path fill-rule="nonzero" fill="#FFFFFF" fill-opacity="1" d="M 299.652344 404.382812 L 262.214844 404.382812 L 262.214844 390.597656 L 299.652344 390.597656 Z M 288.511719 370.730469 L 273.246094 370.730469 L 228.824219 385.164062 L 228.824219 409.953125 L 273.246094 424.382812 L 288.511719 424.382812 L 332.933594 409.953125 L 332.933594 385.164062 Z M 288.511719 370.730469 "/>
<path fill-rule="nonzero" fill="#FFFFFF" fill-opacity="1" d="M 906.792969 404.382812 L 869.355469 404.382812 L 869.355469 390.597656 L 906.792969 390.597656 Z M 895.65625 370.730469 L 880.386719 370.730469 L 835.96875 370.714844 L 835.96875 424.382812 L 895.65625 424.382812 L 940.078125 409.953125 L 940.078125 385.164062 Z M 895.65625 370.730469 "/>
<path fill-rule="nonzero" fill="#FFFFFF" fill-opacity="1" d="M 219.199219 388.347656 L 219.199219 370.734375 L 114.988281 370.734375 L 114.988281 424.382812 L 148.464844 424.382812 L 148.464844 402.167969 L 219.199219 402.167969 L 219.199219 392.199219 L 148.464844 392.199219 L 148.464844 388.347656 Z M 219.199219 388.347656 "/>
<path fill-rule="nonzero" fill="#FFFFFF" fill-opacity="1" d="M 558.386719 370.59375 L 456.398438 370.59375 L 456.398438 388.207031 L 490.652344 388.207031 L 490.652344 424.382812 L 524.128906 424.382812 L 524.128906 388.207031 L 558.386719 388.207031 Z M 558.386719 370.59375 "/>
<path fill-rule="nonzero" fill="#FFFFFF" fill-opacity="1" d="M 713.101562 370.59375 L 611.113281 370.59375 L 611.113281 388.207031 L 645.367188 388.207031 L 645.367188 424.382812 L 678.847656 424.382812 L 678.847656 388.207031 L 713.101562 388.207031 Z M 713.101562 370.59375 "/>
<path fill-rule="nonzero" fill="#FFFFFF" fill-opacity="1" d="M 792.867188 370.730469 L 792.867188 406.769531 L 756.203125 406.769531 L 756.203125 370.730469 L 722.726562 370.730469 L 722.726562 424.382812 L 826.34375 424.382812 L 826.34375 370.730469 Z M 792.867188 370.730469 "/>
<path fill-rule="nonzero" fill="#FFFFFF" fill-opacity="1" d="M 601.488281 370.730469 L 568.007812 370.730469 L 568.007812 424.382812 L 601.488281 424.382812 Z M 601.488281 370.730469 "/>
<path fill-rule="nonzero" fill="#FFFFFF" fill-opacity="1" d="M 342.558594 370.59375 L 342.558594 424.246094 L 376.035156 424.246094 L 376.035156 409.199219 L 413.292969 409.199219 L 413.292969 424.382812 L 446.773438 424.382812 L 446.773438 409.199219 L 413.292969 398.175781 L 376.035156 398.175781 L 376.035156 388.207031 L 413.292969 388.207031 L 413.292969 398.175781 L 446.773438 398.175781 L 446.773438 370.59375 Z M 342.558594 370.59375 "/>
<path fill-rule="nonzero" fill="#FFFFFF" fill-opacity="1" d="M 1053.914062 388.179688 L 1053.914062 370.566406 L 949.699219 370.566406 L 949.699219 424.214844 L 1053.914062 424.214844 L 1053.914062 406.601562 L 983.179688 406.601562 L 983.179688 402.441406 L 1053.914062 402.441406 L 1053.914062 392.199219 L 983.179688 392.199219 L 983.179688 388.179688 Z M 1053.914062 388.179688 "/>
</svg>
