<?xml version="1.0" encoding="UTF-8"?>
<svg xmlns="http://www.w3.org/2000/svg" xmlns:xlink="http://www.w3.org/1999/xlink" width="1190.55" height="841.89" viewBox="0 0 1190.55 841.89">
<path fill-rule="nonzero" fill="#FFFFFF" fill-opacity="1" d="M 121.546875 445.429688 C 120.945312 445.429688 120.945312 445.5 120.945312 446.449219 L 120.945312 453.890625 C 120.945312 456.429688 121.019531 456.855469 122.289062 456.960938 L 123.558594 457.066406 C 123.804688 457.242188 123.734375 457.839844 123.484375 457.945312 C 121.898438 457.875 120.878906 457.839844 119.640625 457.839844 C 118.375 457.839844 117.316406 457.875 116.257812 457.945312 C 116.011719 457.839844 115.941406 457.242188 116.1875 457.066406 L 116.996094 456.960938 C 118.300781 456.78125 118.339844 456.429688 118.339844 453.890625 L 118.339844 446.449219 C 118.339844 445.5 118.339844 445.429688 117.632812 445.429688 L 116.398438 445.429688 C 116.1875 445.285156 116.152344 444.96875 116.292969 444.757812 L 117.808594 444.019531 C 118.089844 443.875 118.339844 443.664062 118.339844 443.3125 C 118.339844 441.265625 118.582031 439.078125 119.429688 437.105469 C 120.3125 435.09375 122.289062 432.628906 125.777344 432.628906 C 127.648438 432.628906 129.234375 433.472656 129.234375 434.742188 C 129.234375 435.449219 128.5625 436.011719 127.894531 436.011719 C 127.507812 436.011719 127.292969 435.871094 127.046875 435.589844 C 126.378906 434.8125 125.390625 434.039062 124.226562 434.039062 C 123.132812 434.039062 122.25 434.707031 121.722656 435.976562 C 121.089844 437.597656 120.945312 440.171875 120.945312 441.9375 L 120.945312 442.960938 C 120.945312 443.910156 120.945312 443.949219 121.546875 443.949219 L 125.566406 443.949219 C 125.957031 444.300781 125.707031 445.285156 125.320312 445.429688 Z M 121.546875 445.429688 "/>
<path fill-rule="nonzero" fill="#FFFFFF" fill-opacity="1" d="M 133.535156 444.511719 C 131.207031 444.511719 129.480469 446.734375 129.480469 450.613281 C 129.480469 453.820312 130.925781 457.277344 134.03125 457.277344 C 137.132812 457.277344 138.085938 454.03125 138.085938 451.316406 C 138.085938 448.320312 136.886719 444.511719 133.535156 444.511719 M 141.117188 450.753906 C 141.117188 455.160156 138.085938 458.335938 133.679688 458.335938 C 129.621094 458.335938 126.449219 455.480469 126.449219 451.070312 C 126.449219 446.625 129.796875 443.453125 133.960938 443.453125 C 137.910156 443.453125 141.117188 446.414062 141.117188 450.753906 "/>
<path fill-rule="nonzero" fill="#FFFFFF" fill-opacity="1" d="M 145.808594 447.71875 C 145.808594 446.34375 145.808594 446.167969 144.859375 445.53125 L 144.539062 445.324219 C 144.398438 445.179688 144.398438 444.792969 144.574219 444.6875 C 145.386719 444.40625 147.253906 443.488281 148.136719 442.957031 C 148.3125 442.992188 148.417969 443.066406 148.417969 443.207031 L 148.417969 445.25 C 148.417969 445.429688 148.453125 445.53125 148.523438 445.570312 C 149.757812 444.546875 151.097656 443.453125 152.402344 443.453125 C 153.285156 443.453125 153.992188 444.019531 153.992188 444.863281 C 153.992188 446.027344 153.039062 446.488281 152.476562 446.488281 C 152.121094 446.488281 151.945312 446.378906 151.699219 446.238281 C 151.167969 445.886719 150.640625 445.675781 150.148438 445.675781 C 149.582031 445.675781 149.160156 445.992188 148.878906 446.378906 C 148.523438 446.875 148.417969 447.898438 148.417969 449.09375 L 148.417969 453.890625 C 148.417969 456.429688 148.488281 456.855469 149.828125 456.960938 L 151.097656 457.066406 C 151.347656 457.242188 151.273438 457.839844 151.027344 457.945312 C 149.371094 457.875 148.347656 457.839844 147.113281 457.839844 C 145.84375 457.839844 144.785156 457.875 143.871094 457.945312 C 143.621094 457.839844 143.550781 457.242188 143.800781 457.066406 L 144.46875 456.960938 C 145.773438 456.746094 145.808594 456.429688 145.808594 453.890625 Z M 145.808594 447.71875 "/>
<path fill-rule="nonzero" fill="#FFFFFF" fill-opacity="1" d="M 163.722656 465.105469 C 163.722656 464.152344 164.359375 463.695312 165.132812 463.695312 L 165.804688 463.695312 C 166.371094 463.695312 166.722656 463.449219 166.96875 463.0625 C 167.992188 461.472656 168.695312 459.992188 169.015625 459.144531 C 169.121094 458.863281 169.367188 458.125 169.367188 457.628906 C 169.367188 456.925781 169.226562 456.5 168.765625 455.195312 L 166.015625 447.648438 C 165.417969 445.992188 165.167969 445.144531 163.9375 444.898438 L 163.054688 444.722656 C 162.84375 444.546875 162.878906 443.945312 163.160156 443.839844 C 164.289062 443.914062 165.347656 443.945312 166.511719 443.945312 C 167.460938 443.945312 168.449219 443.914062 169.578125 443.839844 C 169.859375 443.945312 169.894531 444.546875 169.648438 444.722656 L 168.765625 444.898438 C 168.273438 445.003906 167.992188 445.109375 167.992188 445.359375 C 167.992188 445.78125 168.800781 448.074219 169.015625 448.671875 L 170.144531 451.917969 C 170.355469 452.480469 171.023438 454.351562 171.164062 454.421875 C 171.269531 454.351562 171.835938 453.257812 172.46875 451.8125 L 173.667969 449.023438 C 174.445312 447.191406 174.902344 445.886719 174.902344 445.5 C 174.902344 445.25 174.691406 445.003906 174.054688 444.898438 L 172.964844 444.722656 C 172.71875 444.546875 172.75 443.945312 173.035156 443.839844 C 174.164062 443.914062 175.222656 443.945312 176.136719 443.945312 C 177.019531 443.945312 177.828125 443.914062 178.816406 443.839844 C 179.097656 443.980469 179.136719 444.511719 178.886719 444.722656 L 178.289062 444.828125 C 177.125 445.039062 176.492188 446.0625 175.289062 448.566406 L 173.316406 452.621094 C 172.152344 454.984375 169.261719 461.121094 167.53125 464.964844 C 166.933594 466.304688 166.085938 466.621094 165.277344 466.621094 C 164.253906 466.621094 163.722656 465.988281 163.722656 465.105469 "/>
<path fill-rule="nonzero" fill="#FFFFFF" fill-opacity="1" d="M 186.433594 444.511719 C 184.109375 444.511719 182.378906 446.734375 182.378906 450.613281 C 182.378906 453.820312 183.828125 457.277344 186.929688 457.277344 C 190.03125 457.277344 190.984375 454.03125 190.984375 451.316406 C 190.984375 448.320312 189.785156 444.511719 186.433594 444.511719 M 194.015625 450.753906 C 194.015625 455.160156 190.984375 458.335938 186.578125 458.335938 C 182.519531 458.335938 179.347656 455.480469 179.347656 451.070312 C 179.347656 446.625 182.699219 443.453125 186.859375 443.453125 C 190.808594 443.453125 194.015625 446.414062 194.015625 450.753906 "/>
<path fill-rule="nonzero" fill="#FFFFFF" fill-opacity="1" d="M 200.859375 452.65625 C 200.859375 455.089844 201.457031 456.714844 204.140625 456.714844 C 205.089844 456.714844 206.21875 456.324219 206.996094 455.65625 C 207.453125 455.230469 207.699219 454.703125 207.699219 453.609375 L 207.699219 447.828125 C 207.699219 445.535156 207.453125 445.464844 206.394531 445.039062 L 205.9375 444.863281 C 205.691406 444.722656 205.691406 444.230469 205.972656 444.089844 C 207.382812 444.054688 209.324219 443.804688 210.097656 443.453125 C 210.273438 443.488281 210.378906 443.558594 210.414062 443.699219 C 210.34375 444.371094 210.3125 445.464844 210.3125 446.769531 L 210.3125 452.691406 C 210.3125 455.480469 210.414062 456.535156 211.402344 456.535156 C 211.824219 456.535156 212.285156 456.464844 212.777344 456.359375 C 212.992188 456.535156 213.027344 457.242188 212.742188 457.382812 C 211.367188 457.664062 209.324219 458.019531 208.125 458.6875 C 207.949219 458.6875 207.773438 458.582031 207.699219 458.441406 L 207.699219 456.996094 C 207.699219 456.675781 207.59375 456.5 207.382812 456.5 C 206.324219 457.171875 204.597656 458.335938 202.515625 458.335938 C 199.414062 458.335938 198.25 456.785156 198.25 453.925781 L 198.25 448.039062 C 198.25 445.816406 198.25 445.5 197.191406 445.039062 L 196.769531 444.863281 C 196.558594 444.6875 196.589844 444.195312 196.839844 444.089844 C 198.460938 444.054688 199.835938 443.734375 200.613281 443.453125 C 200.824219 443.488281 200.929688 443.558594 200.964844 443.699219 C 200.894531 444.300781 200.859375 445.039062 200.859375 446.769531 Z M 200.859375 452.65625 "/>
<path fill-rule="nonzero" fill="#FFFFFF" fill-opacity="1" d="M 216.765625 447.71875 C 216.765625 446.34375 216.765625 446.167969 215.8125 445.53125 L 215.496094 445.324219 C 215.351562 445.179688 215.351562 444.792969 215.53125 444.6875 C 216.339844 444.40625 218.351562 443.488281 219.054688 442.957031 C 219.199219 442.957031 219.375 443.03125 219.445312 443.207031 C 219.375 444.019531 219.375 444.546875 219.375 444.863281 C 219.375 445.074219 219.515625 445.25 219.761719 445.25 C 221.242188 444.335938 222.902344 443.453125 224.699219 443.453125 C 227.625 443.453125 228.824219 445.464844 228.824219 447.824219 L 228.824219 453.890625 C 228.824219 456.429688 228.894531 456.78125 230.164062 456.960938 L 230.941406 457.066406 C 231.1875 457.242188 231.117188 457.839844 230.871094 457.945312 C 229.8125 457.875 228.789062 457.839844 227.554688 457.839844 C 226.285156 457.839844 225.226562 457.875 224.277344 457.945312 C 224.027344 457.839844 223.957031 457.242188 224.203125 457.066406 L 224.875 456.960938 C 226.179688 456.746094 226.214844 456.429688 226.214844 453.890625 L 226.214844 448.636719 C 226.214844 446.625 225.296875 445.144531 222.902344 445.144531 C 221.558594 445.144531 220.394531 445.710938 219.902344 446.378906 C 219.445312 446.980469 219.375 447.472656 219.375 448.496094 L 219.375 453.890625 C 219.375 456.429688 219.445312 456.746094 220.714844 456.960938 L 221.347656 457.066406 C 221.59375 457.242188 221.523438 457.839844 221.277344 457.945312 C 220.324219 457.875 219.304688 457.839844 218.070312 457.839844 C 216.800781 457.839844 215.742188 457.875 214.753906 457.945312 C 214.507812 457.839844 214.4375 457.242188 214.683594 457.066406 L 215.425781 456.960938 C 216.730469 456.78125 216.765625 456.429688 216.765625 453.890625 Z M 216.765625 447.71875 "/>
<path fill-rule="nonzero" fill="#FFFFFF" fill-opacity="1" d="M 242.367188 448.882812 C 242.367188 446.488281 241.378906 444.476562 239.226562 444.476562 C 237.535156 444.476562 236.265625 446.027344 236.265625 448.425781 C 236.265625 450.929688 237.78125 452.550781 239.476562 452.550781 C 241.378906 452.550781 242.367188 451.035156 242.367188 448.882812 M 240.179688 458.96875 C 239.050781 458.96875 237.640625 459.039062 237.148438 459.359375 C 236.300781 459.886719 235.453125 460.980469 235.453125 462.320312 C 235.453125 464.226562 236.972656 465.8125 240.179688 465.8125 C 243.320312 465.8125 245.398438 464.046875 245.398438 462.039062 C 245.398438 459.886719 243.917969 458.96875 241.378906 458.96875 Z M 247.550781 444.722656 C 247.9375 444.898438 247.867188 446.097656 247.339844 446.167969 L 244.800781 446.167969 C 244.871094 446.769531 244.871094 447.367188 244.871094 447.96875 C 244.871094 450.402344 243.425781 453.574219 238.945312 453.574219 C 238.3125 453.574219 237.816406 453.503906 237.394531 453.46875 C 236.972656 453.714844 235.84375 454.386719 235.84375 455.40625 C 235.84375 456.21875 236.652344 456.890625 238.3125 456.890625 C 239.511719 456.890625 240.957031 456.78125 242.507812 456.78125 C 244.484375 456.78125 247.445312 457.136719 247.445312 460.664062 C 247.445312 464.507812 243.25 467.328125 238.664062 467.328125 C 234.328125 467.328125 232.808594 465 232.808594 463.238281 C 232.808594 462.671875 232.953125 462.214844 233.199219 461.933594 C 233.796875 461.296875 234.785156 460.378906 235.597656 459.570312 C 235.914062 459.25 236.195312 458.933594 235.878906 458.722656 C 234.503906 458.371094 233.304688 457.171875 233.304688 455.9375 C 233.304688 455.761719 233.445312 455.621094 233.832031 455.335938 C 234.433594 454.949219 235.101562 454.351562 235.703125 453.714844 C 235.878906 453.503906 236.054688 453.222656 236.054688 453.046875 C 234.855469 452.410156 233.410156 451.035156 233.410156 448.777344 C 233.410156 445.746094 236.019531 443.453125 239.15625 443.453125 C 240.496094 443.453125 241.730469 443.804688 242.542969 444.15625 C 243.671875 444.652344 243.917969 444.722656 244.695312 444.722656 Z M 247.550781 444.722656 "/>
<path fill-rule="nonzero" fill="#FFFFFF" fill-opacity="1" d="M 278.515625 448.777344 C 278.515625 446.378906 277.457031 445.144531 275.234375 445.144531 C 273.894531 445.144531 272.800781 445.746094 272.308594 446.378906 C 271.882812 446.910156 271.777344 447.261719 271.777344 448.496094 L 271.777344 453.890625 C 271.777344 456.429688 271.847656 456.785156 273.117188 456.960938 L 273.859375 457.066406 C 274.105469 457.242188 274.035156 457.839844 273.789062 457.945312 C 272.730469 457.875 271.707031 457.839844 270.472656 457.839844 C 269.203125 457.839844 268.25 457.875 267.265625 457.945312 C 267.015625 457.839844 266.945312 457.242188 267.195312 457.066406 L 267.828125 456.960938 C 269.132812 456.75 269.167969 456.429688 269.167969 453.890625 L 269.167969 448.777344 C 269.167969 446.414062 268.109375 445.144531 265.925781 445.144531 C 264.476562 445.144531 263.492188 445.78125 262.960938 446.414062 C 262.609375 446.839844 262.433594 447.296875 262.433594 448.425781 L 262.433594 453.890625 C 262.433594 456.429688 262.503906 456.75 263.773438 456.960938 L 264.40625 457.066406 C 264.65625 457.242188 264.585938 457.839844 264.335938 457.945312 C 263.386719 457.875 262.363281 457.839844 261.128906 457.839844 C 259.859375 457.839844 258.800781 457.875 257.707031 457.945312 C 257.460938 457.839844 257.390625 457.242188 257.636719 457.066406 L 258.484375 456.960938 C 259.789062 456.785156 259.824219 456.429688 259.824219 453.890625 L 259.824219 447.71875 C 259.824219 446.34375 259.824219 446.167969 258.871094 445.535156 L 258.554688 445.324219 C 258.414062 445.179688 258.414062 444.792969 258.589844 444.6875 C 259.398438 444.40625 261.410156 443.488281 262.117188 442.960938 C 262.257812 442.960938 262.433594 443.03125 262.503906 443.207031 C 262.433594 444.015625 262.433594 444.546875 262.433594 444.863281 C 262.433594 445.074219 262.574219 445.25 262.820312 445.25 C 264.160156 444.300781 265.820312 443.453125 267.511719 443.453125 C 269.273438 443.453125 270.261719 444.089844 271.25 445.535156 C 271.566406 445.605469 271.8125 445.464844 272.132812 445.25 C 273.542969 444.265625 275.269531 443.453125 276.925781 443.453125 C 279.75 443.453125 281.121094 445.394531 281.121094 447.828125 L 281.121094 453.890625 C 281.121094 456.429688 281.195312 456.785156 282.464844 456.960938 L 283.308594 457.066406 C 283.558594 457.242188 283.484375 457.839844 283.238281 457.945312 C 282.074219 457.875 281.054688 457.839844 279.816406 457.839844 C 278.546875 457.839844 277.597656 457.875 276.609375 457.945312 C 276.363281 457.839844 276.292969 457.242188 276.539062 457.066406 L 277.171875 456.960938 C 278.480469 456.75 278.515625 456.429688 278.515625 453.890625 Z M 278.515625 448.777344 "/>
<path fill-rule="nonzero" fill="#FFFFFF" fill-opacity="1" d="M 290.890625 447.753906 C 293.503906 447.753906 294.277344 447.613281 294.558594 447.402344 C 294.667969 447.332031 294.769531 447.191406 294.769531 446.734375 C 294.769531 445.746094 294.101562 444.511719 292.054688 444.511719 C 289.976562 444.511719 288.175781 446.414062 288.140625 447.578125 C 288.140625 447.652344 288.140625 447.753906 288.386719 447.753906 Z M 288.707031 448.8125 C 287.789062 448.8125 287.753906 448.882812 287.753906 449.765625 C 287.753906 453.328125 289.835938 456.359375 293.609375 456.359375 C 294.769531 456.359375 295.757812 456.007812 296.851562 454.632812 C 297.203125 454.527344 297.453125 454.738281 297.488281 455.054688 C 296.324219 457.453125 293.785156 458.335938 291.949219 458.335938 C 289.65625 458.335938 287.859375 457.347656 286.835938 456.007812 C 285.78125 454.632812 285.355469 452.976562 285.355469 451.421875 C 285.355469 447.085938 288.210938 443.453125 292.445312 443.453125 C 295.476562 443.453125 297.453125 445.535156 297.453125 447.652344 C 297.453125 448.144531 297.382812 448.425781 297.308594 448.566406 C 297.203125 448.777344 296.710938 448.8125 295.230469 448.8125 Z M 288.707031 448.8125 "/>
<path fill-rule="nonzero" fill="#FFFFFF" fill-opacity="1" d="M 301.542969 447.71875 C 301.542969 446.34375 301.542969 446.167969 300.589844 445.53125 L 300.273438 445.324219 C 300.132812 445.179688 300.132812 444.792969 300.308594 444.6875 C 301.121094 444.40625 303.128906 443.488281 303.835938 442.957031 C 303.976562 442.957031 304.152344 443.03125 304.222656 443.207031 C 304.152344 444.019531 304.152344 444.546875 304.152344 444.863281 C 304.152344 445.074219 304.292969 445.25 304.542969 445.25 C 306.023438 444.335938 307.679688 443.453125 309.476562 443.453125 C 312.402344 443.453125 313.605469 445.464844 313.605469 447.824219 L 313.605469 453.890625 C 313.605469 456.429688 313.675781 456.78125 314.941406 456.960938 L 315.71875 457.066406 C 315.964844 457.242188 315.894531 457.839844 315.648438 457.945312 C 314.589844 457.875 313.570312 457.839844 312.335938 457.839844 C 311.066406 457.839844 310.007812 457.875 309.054688 457.945312 C 308.808594 457.839844 308.738281 457.242188 308.984375 457.066406 L 309.652344 456.960938 C 310.957031 456.746094 310.992188 456.429688 310.992188 453.890625 L 310.992188 448.636719 C 310.992188 446.625 310.078125 445.144531 307.679688 445.144531 C 306.339844 445.144531 305.175781 445.710938 304.683594 446.378906 C 304.222656 446.980469 304.152344 447.472656 304.152344 448.496094 L 304.152344 453.890625 C 304.152344 456.429688 304.222656 456.746094 305.492188 456.960938 L 306.128906 457.066406 C 306.375 457.242188 306.304688 457.839844 306.058594 457.945312 C 305.105469 457.875 304.082031 457.839844 302.847656 457.839844 C 301.578125 457.839844 300.519531 457.875 299.53125 457.945312 C 299.285156 457.839844 299.214844 457.242188 299.460938 457.066406 L 300.203125 456.960938 C 301.507812 456.78125 301.542969 456.429688 301.542969 453.890625 Z M 301.542969 447.71875 "/>
<path fill-rule="nonzero" fill="#FFFFFF" fill-opacity="1" d="M 605.609375 453.890625 C 605.609375 456.429688 605.679688 456.785156 606.953125 456.960938 L 607.796875 457.066406 C 608.046875 457.242188 607.972656 457.839844 607.726562 457.945312 C 606.5625 457.875 605.539062 457.839844 604.304688 457.839844 C 603.035156 457.839844 601.976562 457.875 600.921875 457.945312 C 600.675781 457.839844 600.601562 457.242188 600.851562 457.066406 L 601.660156 456.960938 C 602.964844 456.785156 603 456.429688 603 453.890625 L 603 437.953125 C 603 435.871094 602.964844 435.660156 601.910156 435.023438 L 601.554688 434.8125 C 601.378906 434.707031 601.378906 434.214844 601.554688 434.109375 C 602.4375 433.828125 604.09375 433.296875 605.363281 432.628906 C 605.507812 432.628906 605.644531 432.699219 605.71875 432.835938 C 605.679688 433.894531 605.609375 435.660156 605.609375 437.210938 Z M 605.609375 453.890625 "/>
<path fill-rule="nonzero" fill="#FFFFFF" fill-opacity="1" d="M 614.992188 437.671875 C 614.992188 438.941406 614.109375 439.503906 613.121094 439.503906 C 612.027344 439.503906 611.324219 438.691406 611.324219 437.742188 C 611.324219 436.578125 612.171875 435.835938 613.226562 435.835938 C 614.285156 435.835938 614.992188 436.683594 614.992188 437.671875 M 612.0625 447.71875 C 612.0625 446.34375 612.0625 446.167969 611.113281 445.535156 L 610.796875 445.324219 C 610.652344 445.179688 610.652344 444.792969 610.832031 444.6875 C 611.640625 444.40625 613.652344 443.488281 614.464844 442.960938 C 614.636719 442.960938 614.78125 443.027344 614.816406 443.171875 C 614.746094 444.40625 614.675781 446.097656 614.675781 447.542969 L 614.675781 453.890625 C 614.675781 456.429688 614.746094 456.78125 616.015625 456.960938 L 616.753906 457.066406 C 617.003906 457.242188 616.929688 457.839844 616.683594 457.945312 C 615.625 457.875 614.601562 457.839844 613.371094 457.839844 C 612.097656 457.839844 611.042969 457.875 610.054688 457.945312 C 609.808594 457.839844 609.738281 457.242188 609.984375 457.066406 L 610.722656 456.960938 C 612.027344 456.78125 612.0625 456.429688 612.0625 453.890625 Z M 612.0625 447.71875 "/>
<path fill-rule="nonzero" fill="#FFFFFF" fill-opacity="1" d="M 620.5625 447.4375 C 620.035156 446.132812 619.714844 445.003906 618.449219 444.828125 L 617.742188 444.722656 C 617.53125 444.441406 617.566406 443.949219 617.847656 443.839844 C 618.730469 443.914062 619.964844 443.949219 621.164062 443.949219 C 622.117188 443.949219 622.820312 443.914062 624.019531 443.839844 C 624.265625 443.980469 624.300781 444.546875 624.054688 444.722656 L 623.632812 444.792969 C 622.539062 444.96875 622.503906 445.144531 622.855469 446.203125 C 623.667969 448.636719 624.691406 451.105469 625.5 452.941406 C 625.816406 453.644531 625.957031 453.960938 626.066406 454.070312 C 626.207031 453.960938 626.453125 453.46875 626.734375 452.726562 C 627.195312 451.53125 628.390625 448.460938 628.746094 447.542969 C 629.238281 446.308594 629.378906 445.570312 629.378906 445.359375 C 629.378906 445.039062 629.167969 444.898438 628.746094 444.828125 L 627.933594 444.722656 C 627.722656 444.476562 627.757812 443.980469 628.003906 443.839844 C 629.097656 443.914062 629.980469 443.949219 630.648438 443.949219 C 631.53125 443.949219 632.128906 443.914062 633.117188 443.839844 C 633.367188 443.980469 633.402344 444.511719 633.1875 444.722656 L 632.660156 444.792969 C 631.425781 444.96875 631.109375 445.886719 630.085938 447.863281 C 629.589844 448.8125 627.40625 453.925781 626.839844 455.371094 C 626.488281 456.253906 626.136719 457.066406 625.675781 458.265625 C 625.605469 458.371094 625.464844 458.40625 625.324219 458.40625 C 625.148438 458.40625 624.972656 458.371094 624.867188 458.265625 C 624.582031 457.277344 624.054688 455.902344 623.527344 454.597656 Z M 620.5625 447.4375 "/>
<path fill-rule="nonzero" fill="#FFFFFF" fill-opacity="1" d="M 639.289062 437.671875 C 639.289062 438.941406 638.40625 439.503906 637.421875 439.503906 C 636.328125 439.503906 635.621094 438.691406 635.621094 437.742188 C 635.621094 436.578125 636.46875 435.835938 637.523438 435.835938 C 638.582031 435.835938 639.289062 436.683594 639.289062 437.671875 M 636.363281 447.71875 C 636.363281 446.34375 636.363281 446.167969 635.410156 445.535156 L 635.09375 445.324219 C 634.953125 445.179688 634.953125 444.792969 635.128906 444.6875 C 635.9375 444.40625 637.949219 443.488281 638.761719 442.960938 C 638.9375 442.960938 639.078125 443.027344 639.113281 443.171875 C 639.042969 444.40625 638.972656 446.097656 638.972656 447.542969 L 638.972656 453.890625 C 638.972656 456.429688 639.042969 456.78125 640.3125 456.960938 L 641.054688 457.066406 C 641.300781 457.242188 641.226562 457.839844 640.980469 457.945312 C 639.925781 457.875 638.902344 457.839844 637.667969 457.839844 C 636.398438 457.839844 635.339844 457.875 634.351562 457.945312 C 634.105469 457.839844 634.035156 457.242188 634.28125 457.066406 L 635.019531 456.960938 C 636.328125 456.78125 636.363281 456.429688 636.363281 453.890625 Z M 636.363281 447.71875 "/>
<path fill-rule="nonzero" fill="#FFFFFF" fill-opacity="1" d="M 645.425781 447.71875 C 645.425781 446.34375 645.425781 446.167969 644.472656 445.53125 L 644.15625 445.324219 C 644.015625 445.179688 644.015625 444.792969 644.191406 444.6875 C 645.003906 444.40625 647.011719 443.488281 647.71875 442.957031 C 647.859375 442.957031 648.035156 443.03125 648.105469 443.207031 C 648.035156 444.019531 648.035156 444.546875 648.035156 444.863281 C 648.035156 445.074219 648.175781 445.25 648.421875 445.25 C 649.902344 444.335938 651.5625 443.453125 653.359375 443.453125 C 656.285156 443.453125 657.484375 445.464844 657.484375 447.824219 L 657.484375 453.890625 C 657.484375 456.429688 657.554688 456.78125 658.824219 456.960938 L 659.601562 457.066406 C 659.847656 457.242188 659.777344 457.839844 659.53125 457.945312 C 658.472656 457.875 657.449219 457.839844 656.21875 457.839844 C 654.945312 457.839844 653.890625 457.875 652.9375 457.945312 C 652.691406 457.839844 652.621094 457.242188 652.867188 457.066406 L 653.535156 456.960938 C 654.839844 456.746094 654.875 456.429688 654.875 453.890625 L 654.875 448.636719 C 654.875 446.625 653.960938 445.144531 651.5625 445.144531 C 650.222656 445.144531 649.058594 445.710938 648.5625 446.378906 C 648.105469 446.980469 648.035156 447.472656 648.035156 448.496094 L 648.035156 453.890625 C 648.035156 456.429688 648.105469 456.746094 649.375 456.960938 L 650.011719 457.066406 C 650.257812 457.242188 650.1875 457.839844 649.9375 457.945312 C 648.988281 457.875 647.964844 457.839844 646.730469 457.839844 C 645.460938 457.839844 644.402344 457.875 643.414062 457.945312 C 643.167969 457.839844 643.097656 457.242188 643.34375 457.066406 L 644.085938 456.960938 C 645.390625 456.78125 645.425781 456.429688 645.425781 453.890625 Z M 645.425781 447.71875 "/>
<path fill-rule="nonzero" fill="#FFFFFF" fill-opacity="1" d="M 671.027344 448.882812 C 671.027344 446.488281 670.039062 444.476562 667.890625 444.476562 C 666.195312 444.476562 664.925781 446.027344 664.925781 448.425781 C 664.925781 450.929688 666.441406 452.550781 668.136719 452.550781 C 670.039062 452.550781 671.027344 451.035156 671.027344 448.882812 M 668.839844 458.96875 C 667.714844 458.96875 666.300781 459.039062 665.808594 459.359375 C 664.960938 459.886719 664.117188 460.980469 664.117188 462.320312 C 664.117188 464.226562 665.632812 465.8125 668.839844 465.8125 C 671.980469 465.8125 674.058594 464.046875 674.058594 462.039062 C 674.058594 459.886719 672.578125 458.96875 670.039062 458.96875 Z M 676.210938 444.722656 C 676.597656 444.898438 676.53125 446.097656 676 446.167969 L 673.460938 446.167969 C 673.53125 446.769531 673.53125 447.367188 673.53125 447.96875 C 673.53125 450.402344 672.085938 453.574219 667.605469 453.574219 C 666.972656 453.574219 666.476562 453.503906 666.054688 453.46875 C 665.632812 453.714844 664.503906 454.386719 664.503906 455.40625 C 664.503906 456.21875 665.316406 456.890625 666.972656 456.890625 C 668.171875 456.890625 669.617188 456.78125 671.167969 456.78125 C 673.144531 456.78125 676.105469 457.136719 676.105469 460.664062 C 676.105469 464.507812 671.910156 467.328125 667.324219 467.328125 C 662.988281 467.328125 661.46875 465 661.46875 463.238281 C 661.46875 462.671875 661.613281 462.214844 661.859375 461.933594 C 662.457031 461.296875 663.445312 460.378906 664.257812 459.570312 C 664.574219 459.25 664.855469 458.933594 664.539062 458.722656 C 663.164062 458.371094 661.964844 457.171875 661.964844 455.9375 C 661.964844 455.761719 662.105469 455.621094 662.492188 455.335938 C 663.09375 454.949219 663.761719 454.351562 664.363281 453.714844 C 664.539062 453.503906 664.714844 453.222656 664.714844 453.046875 C 663.515625 452.410156 662.070312 451.035156 662.070312 448.777344 C 662.070312 445.746094 664.679688 443.453125 667.820312 443.453125 C 669.160156 443.453125 670.394531 443.804688 671.203125 444.15625 C 672.332031 444.652344 672.578125 444.722656 673.355469 444.722656 Z M 676.210938 444.722656 "/>
<path fill-rule="nonzero" fill="#FFFFFF" fill-opacity="1" d="M 691.378906 445.429688 C 690.777344 445.429688 690.742188 445.53125 690.742188 446.273438 L 690.742188 452.867188 C 690.742188 454.914062 690.988281 456.78125 693.316406 456.78125 C 693.667969 456.78125 693.988281 456.710938 694.269531 456.609375 C 694.585938 456.5 695.042969 456.113281 695.148438 456.113281 C 695.433594 456.113281 695.574219 456.5 695.503906 456.710938 C 694.867188 457.453125 693.597656 458.335938 691.800781 458.335938 C 688.765625 458.335938 688.132812 456.644531 688.132812 454.527344 L 688.132812 446.449219 C 688.132812 445.5 688.097656 445.429688 687.390625 445.429688 L 686.402344 445.429688 C 686.191406 445.285156 686.15625 444.898438 686.300781 444.6875 C 687.320312 444.371094 688.203125 443.910156 688.554688 443.59375 C 689.015625 443.171875 689.683594 442.21875 690.035156 441.511719 C 690.210938 441.445312 690.636719 441.445312 690.777344 441.691406 L 690.777344 443.277344 C 690.777344 443.910156 690.8125 443.949219 691.414062 443.949219 L 695.328125 443.949219 C 695.75 444.265625 695.679688 445.214844 695.363281 445.429688 Z M 691.378906 445.429688 "/>
<path fill-rule="nonzero" fill="#FFFFFF" fill-opacity="1" d="M 698.957031 437.953125 C 698.957031 435.871094 698.921875 435.660156 697.863281 435.023438 L 697.511719 434.8125 C 697.335938 434.707031 697.335938 434.214844 697.511719 434.109375 C 698.394531 433.824219 700.050781 433.296875 701.320312 432.628906 C 701.460938 432.628906 701.601562 432.699219 701.675781 432.839844 C 701.640625 433.894531 701.566406 435.660156 701.566406 437.210938 L 701.566406 444.617188 C 701.566406 444.933594 701.601562 445.214844 701.710938 445.285156 C 702.976562 444.300781 704.671875 443.453125 706.46875 443.453125 C 709.820312 443.453125 711.019531 445.535156 711.019531 448.003906 L 711.019531 453.890625 C 711.019531 456.429688 711.089844 456.816406 712.359375 456.960938 L 713.3125 457.066406 C 713.558594 457.242188 713.488281 457.839844 713.242188 457.945312 C 711.972656 457.875 710.949219 457.839844 709.714844 457.839844 C 708.445312 457.839844 707.386719 457.875 706.433594 457.945312 C 706.1875 457.839844 706.117188 457.242188 706.363281 457.066406 L 707.070312 456.960938 C 708.375 456.75 708.410156 456.429688 708.410156 453.890625 L 708.410156 448.847656 C 708.410156 446.59375 707.316406 445.074219 705.058594 445.074219 C 703.859375 445.074219 702.941406 445.5 702.308594 446.027344 C 701.675781 446.554688 701.566406 446.734375 701.566406 447.96875 L 701.566406 453.890625 C 701.566406 456.429688 701.640625 456.785156 702.90625 456.960938 L 703.648438 457.066406 C 703.894531 457.207031 703.824219 457.839844 703.578125 457.945312 C 702.519531 457.875 701.496094 457.839844 700.265625 457.839844 C 698.992188 457.839844 697.9375 457.875 696.808594 457.945312 C 696.5625 457.839844 696.488281 457.242188 696.738281 457.066406 L 697.617188 456.960938 C 698.921875 456.816406 698.957031 456.429688 698.957031 453.890625 Z M 698.957031 437.953125 "/>
<path fill-rule="nonzero" fill="#FFFFFF" fill-opacity="1" d="M 717.472656 447.71875 C 717.472656 446.34375 717.472656 446.167969 716.519531 445.53125 L 716.203125 445.324219 C 716.0625 445.179688 716.0625 444.792969 716.238281 444.6875 C 717.050781 444.40625 718.917969 443.488281 719.800781 442.957031 C 719.976562 442.992188 720.082031 443.066406 720.082031 443.207031 L 720.082031 445.25 C 720.082031 445.429688 720.117188 445.53125 720.1875 445.570312 C 721.421875 444.546875 722.761719 443.453125 724.070312 443.453125 C 724.949219 443.453125 725.65625 444.019531 725.65625 444.863281 C 725.65625 446.027344 724.703125 446.488281 724.136719 446.488281 C 723.785156 446.488281 723.609375 446.378906 723.363281 446.238281 C 722.832031 445.886719 722.304688 445.675781 721.8125 445.675781 C 721.246094 445.675781 720.824219 445.992188 720.539062 446.378906 C 720.1875 446.875 720.082031 447.898438 720.082031 449.09375 L 720.082031 453.890625 C 720.082031 456.429688 720.152344 456.855469 721.492188 456.960938 L 722.761719 457.066406 C 723.011719 457.242188 722.941406 457.839844 722.691406 457.945312 C 721.035156 457.875 720.011719 457.839844 718.777344 457.839844 C 717.507812 457.839844 716.453125 457.875 715.535156 457.945312 C 715.285156 457.839844 715.214844 457.242188 715.460938 457.066406 L 716.132812 456.960938 C 717.4375 456.746094 717.472656 456.429688 717.472656 453.890625 Z M 717.472656 447.71875 "/>
<path fill-rule="nonzero" fill="#FFFFFF" fill-opacity="1" d="M 733.835938 444.511719 C 731.507812 444.511719 729.78125 446.734375 729.78125 450.613281 C 729.78125 453.820312 731.226562 457.277344 734.328125 457.277344 C 737.433594 457.277344 738.386719 454.03125 738.386719 451.316406 C 738.386719 448.320312 737.1875 444.511719 733.835938 444.511719 M 741.417969 450.753906 C 741.417969 455.160156 738.386719 458.335938 733.976562 458.335938 C 729.921875 458.335938 726.746094 455.480469 726.746094 451.070312 C 726.746094 446.625 730.097656 443.453125 734.261719 443.453125 C 738.210938 443.453125 741.417969 446.414062 741.417969 450.753906 "/>
<path fill-rule="nonzero" fill="#FFFFFF" fill-opacity="1" d="M 748.261719 452.65625 C 748.261719 455.089844 748.859375 456.714844 751.539062 456.714844 C 752.492188 456.714844 753.621094 456.324219 754.398438 455.65625 C 754.855469 455.230469 755.101562 454.703125 755.101562 453.609375 L 755.101562 447.828125 C 755.101562 445.535156 754.855469 445.464844 753.796875 445.039062 L 753.339844 444.863281 C 753.089844 444.722656 753.089844 444.230469 753.375 444.089844 C 754.785156 444.054688 756.722656 443.804688 757.5 443.453125 C 757.675781 443.488281 757.78125 443.558594 757.816406 443.699219 C 757.746094 444.371094 757.710938 445.464844 757.710938 446.769531 L 757.710938 452.691406 C 757.710938 455.480469 757.816406 456.535156 758.804688 456.535156 C 759.226562 456.535156 759.6875 456.464844 760.179688 456.359375 C 760.390625 456.535156 760.425781 457.242188 760.144531 457.382812 C 758.769531 457.664062 756.722656 458.019531 755.527344 458.6875 C 755.347656 458.6875 755.171875 458.582031 755.101562 458.441406 L 755.101562 456.996094 C 755.101562 456.675781 754.996094 456.5 754.785156 456.5 C 753.726562 457.171875 751.996094 458.335938 749.917969 458.335938 C 746.816406 458.335938 745.652344 456.785156 745.652344 453.925781 L 745.652344 448.039062 C 745.652344 445.816406 745.652344 445.5 744.59375 445.039062 L 744.167969 444.863281 C 743.957031 444.6875 743.992188 444.195312 744.242188 444.089844 C 745.863281 444.054688 747.238281 443.734375 748.011719 443.453125 C 748.226562 443.488281 748.332031 443.558594 748.363281 443.699219 C 748.296875 444.300781 748.261719 445.039062 748.261719 446.769531 Z M 748.261719 452.65625 "/>
<path fill-rule="nonzero" fill="#FFFFFF" fill-opacity="1" d="M 771.253906 448.882812 C 771.253906 446.488281 770.265625 444.476562 768.113281 444.476562 C 766.421875 444.476562 765.152344 446.027344 765.152344 448.425781 C 765.152344 450.929688 766.667969 452.550781 768.359375 452.550781 C 770.265625 452.550781 771.253906 451.035156 771.253906 448.882812 M 769.066406 458.96875 C 767.9375 458.96875 766.527344 459.039062 766.035156 459.359375 C 765.1875 459.886719 764.339844 460.980469 764.339844 462.320312 C 764.339844 464.226562 765.859375 465.8125 769.066406 465.8125 C 772.203125 465.8125 774.285156 464.046875 774.285156 462.039062 C 774.285156 459.886719 772.804688 458.96875 770.265625 458.96875 Z M 776.4375 444.722656 C 776.824219 444.898438 776.753906 446.097656 776.226562 446.167969 L 773.6875 446.167969 C 773.757812 446.769531 773.757812 447.367188 773.757812 447.96875 C 773.757812 450.402344 772.3125 453.574219 767.832031 453.574219 C 767.195312 453.574219 766.703125 453.503906 766.28125 453.46875 C 765.859375 453.714844 764.730469 454.386719 764.730469 455.40625 C 764.730469 456.21875 765.539062 456.890625 767.195312 456.890625 C 768.394531 456.890625 769.84375 456.78125 771.394531 456.78125 C 773.367188 456.78125 776.332031 457.136719 776.332031 460.664062 C 776.332031 464.507812 772.132812 467.328125 767.550781 467.328125 C 763.210938 467.328125 761.695312 465 761.695312 463.238281 C 761.695312 462.671875 761.835938 462.214844 762.082031 461.933594 C 762.683594 461.296875 763.671875 460.378906 764.480469 459.570312 C 764.796875 459.25 765.082031 458.933594 764.765625 458.722656 C 763.390625 458.371094 762.191406 457.171875 762.191406 455.9375 C 762.191406 455.761719 762.332031 455.621094 762.71875 455.335938 C 763.320312 454.949219 763.988281 454.351562 764.589844 453.714844 C 764.765625 453.503906 764.941406 453.222656 764.941406 453.046875 C 763.742188 452.410156 762.296875 451.035156 762.296875 448.777344 C 762.296875 445.746094 764.90625 443.453125 768.042969 443.453125 C 769.382812 443.453125 770.617188 443.804688 771.429688 444.15625 C 772.558594 444.652344 772.804688 444.722656 773.582031 444.722656 Z M 776.4375 444.722656 "/>
<path fill-rule="nonzero" fill="#FFFFFF" fill-opacity="1" d="M 779.539062 437.953125 C 779.539062 435.871094 779.503906 435.660156 778.445312 435.023438 L 778.09375 434.8125 C 777.917969 434.707031 777.917969 434.214844 778.09375 434.109375 C 778.976562 433.824219 780.632812 433.296875 781.902344 432.628906 C 782.042969 432.628906 782.183594 432.699219 782.257812 432.839844 C 782.21875 433.894531 782.148438 435.660156 782.148438 437.210938 L 782.148438 444.617188 C 782.148438 444.933594 782.183594 445.214844 782.292969 445.285156 C 783.558594 444.300781 785.253906 443.453125 787.050781 443.453125 C 790.402344 443.453125 791.601562 445.535156 791.601562 448.003906 L 791.601562 453.890625 C 791.601562 456.429688 791.671875 456.816406 792.941406 456.960938 L 793.894531 457.066406 C 794.140625 457.242188 794.070312 457.839844 793.824219 457.945312 C 792.554688 457.875 791.53125 457.839844 790.296875 457.839844 C 789.027344 457.839844 787.96875 457.875 787.015625 457.945312 C 786.769531 457.839844 786.699219 457.242188 786.945312 457.066406 L 787.652344 456.960938 C 788.957031 456.75 788.992188 456.429688 788.992188 453.890625 L 788.992188 448.847656 C 788.992188 446.59375 787.898438 445.074219 785.640625 445.074219 C 784.441406 445.074219 783.523438 445.5 782.890625 446.027344 C 782.257812 446.554688 782.148438 446.734375 782.148438 447.96875 L 782.148438 453.890625 C 782.148438 456.429688 782.21875 456.785156 783.488281 456.960938 L 784.230469 457.066406 C 784.476562 457.207031 784.40625 457.839844 784.160156 457.945312 C 783.101562 457.875 782.078125 457.839844 780.847656 457.839844 C 779.574219 457.839844 778.519531 457.875 777.390625 457.945312 C 777.140625 457.839844 777.070312 457.242188 777.316406 457.066406 L 778.199219 456.960938 C 779.503906 456.816406 779.539062 456.429688 779.539062 453.890625 Z M 779.539062 437.953125 "/>
<path fill-rule="nonzero" fill="#FFFFFF" fill-opacity="1" d="M 809.585938 456.75 C 810.292969 456.75 811.386719 456.21875 811.738281 455.867188 C 812.160156 455.441406 812.160156 454.949219 812.195312 454.210938 L 812.269531 452.128906 C 812.269531 451.738281 812.125 451.671875 811.914062 451.671875 C 811.703125 451.671875 811.105469 451.8125 810.46875 452.023438 C 808.390625 452.730469 807.367188 453.257812 807.367188 454.632812 C 807.367188 455.230469 807.789062 456.75 809.585938 456.75 M 811.773438 450.542969 C 812.300781 450.363281 812.375 450.046875 812.375 449.519531 L 812.410156 447.898438 C 812.445312 446.59375 812.023438 444.828125 809.835938 444.828125 C 808.847656 444.828125 807.648438 445.324219 807.578125 446.414062 C 807.542969 446.980469 807.507812 447.402344 807.222656 447.613281 C 806.695312 448.039062 805.742188 448.285156 805.214844 448.285156 C 804.898438 448.285156 804.722656 448.105469 804.722656 447.789062 C 804.722656 445.957031 808.707031 443.453125 811.28125 443.453125 C 813.820312 443.453125 815.054688 444.933594 814.949219 447.578125 L 814.734375 453.714844 C 814.664062 455.335938 814.984375 456.78125 816.359375 456.78125 C 816.710938 456.78125 817.027344 456.679688 817.238281 456.570312 C 817.417969 456.464844 817.59375 456.324219 817.699219 456.324219 C 817.839844 456.324219 817.945312 456.535156 817.945312 456.78125 C 817.945312 456.960938 816.710938 458.335938 814.984375 458.335938 C 814.136719 458.335938 813.289062 458.019531 812.691406 457.242188 C 812.550781 457.03125 812.339844 456.75 812.125 456.75 C 811.878906 456.75 811.457031 457.066406 810.75 457.453125 C 809.976562 457.875 809.199219 458.335938 808.210938 458.335938 C 807.191406 458.335938 806.34375 458.054688 805.742188 457.523438 C 805.074219 456.925781 804.652344 456.042969 804.652344 455.054688 C 804.652344 453.679688 805.320312 452.867188 807.578125 452.058594 Z M 811.773438 450.542969 "/>
<path fill-rule="nonzero" fill="#FFFFFF" fill-opacity="1" d="M 821.121094 447.71875 C 821.121094 446.34375 821.121094 446.167969 820.167969 445.53125 L 819.851562 445.324219 C 819.707031 445.179688 819.707031 444.792969 819.886719 444.6875 C 820.695312 444.40625 822.707031 443.488281 823.410156 442.957031 C 823.554688 442.957031 823.730469 443.03125 823.800781 443.207031 C 823.730469 444.019531 823.730469 444.546875 823.730469 444.863281 C 823.730469 445.074219 823.871094 445.25 824.117188 445.25 C 825.597656 444.335938 827.257812 443.453125 829.054688 443.453125 C 831.980469 443.453125 833.179688 445.464844 833.179688 447.824219 L 833.179688 453.890625 C 833.179688 456.429688 833.25 456.78125 834.519531 456.960938 L 835.296875 457.066406 C 835.542969 457.242188 835.472656 457.839844 835.226562 457.945312 C 834.167969 457.875 833.144531 457.839844 831.910156 457.839844 C 830.640625 457.839844 829.582031 457.875 828.632812 457.945312 C 828.382812 457.839844 828.3125 457.242188 828.558594 457.066406 L 829.230469 456.960938 C 830.535156 456.746094 830.570312 456.429688 830.570312 453.890625 L 830.570312 448.636719 C 830.570312 446.625 829.652344 445.144531 827.257812 445.144531 C 825.914062 445.144531 824.753906 445.710938 824.257812 446.378906 C 823.800781 446.980469 823.730469 447.472656 823.730469 448.496094 L 823.730469 453.890625 C 823.730469 456.429688 823.800781 456.746094 825.070312 456.960938 L 825.703125 457.066406 C 825.949219 457.242188 825.878906 457.839844 825.632812 457.945312 C 824.679688 457.875 823.660156 457.839844 822.425781 457.839844 C 821.15625 457.839844 820.097656 457.875 819.109375 457.945312 C 818.863281 457.839844 818.792969 457.242188 819.039062 457.066406 L 819.78125 456.960938 C 821.085938 456.78125 821.121094 456.429688 821.121094 453.890625 Z M 821.121094 447.71875 "/>
<path fill-rule="nonzero" fill="#FFFFFF" fill-opacity="1" d="M 848.519531 447.402344 C 848.519531 446.699219 848.378906 446.378906 848.132812 446.027344 C 847.601562 445.285156 846.546875 444.546875 845.171875 444.546875 C 841.960938 444.546875 840.304688 447.332031 840.304688 450.402344 C 840.304688 453.609375 842.101562 456.640625 845.558594 456.640625 C 846.511719 456.640625 847.710938 456.21875 848.273438 455.65625 C 848.484375 455.441406 848.519531 454.914062 848.519531 454.351562 Z M 851.128906 452.691406 C 851.128906 455.480469 851.167969 456.785156 852.152344 456.785156 C 852.539062 456.785156 853.140625 456.605469 853.667969 456.429688 C 853.917969 456.5 853.953125 457.382812 853.632812 457.558594 C 852.152344 457.769531 849.964844 458.300781 848.980469 458.6875 C 848.769531 458.6875 848.589844 458.582031 848.589844 458.40625 L 848.589844 457.804688 C 848.589844 457.277344 848.589844 456.855469 848.519531 456.710938 L 848.378906 456.710938 C 846.828125 457.769531 845.628906 458.335938 843.9375 458.335938 C 840.023438 458.335938 837.414062 455.265625 837.414062 451.5625 C 837.414062 446.628906 841.152344 443.453125 845.945312 443.453125 C 847.144531 443.453125 847.921875 443.628906 848.308594 443.769531 C 848.484375 443.769531 848.519531 443.558594 848.519531 443.277344 L 848.519531 437.953125 C 848.519531 435.871094 848.484375 435.660156 847.425781 435.023438 L 847.074219 434.8125 C 846.898438 434.707031 846.898438 434.214844 847.074219 434.109375 C 847.957031 433.824219 849.613281 433.296875 850.882812 432.628906 C 851.023438 432.628906 851.167969 432.699219 851.234375 432.839844 C 851.199219 433.894531 851.128906 435.660156 851.128906 437.210938 Z M 851.128906 452.691406 "/>
<path fill-rule="nonzero" fill="#FFFFFF" fill-opacity="1" d="M 868.199219 453.046875 C 868.199219 454.277344 868.480469 455.371094 869.082031 456.113281 C 869.679688 456.855469 870.632812 457.277344 871.761719 457.277344 C 875.078125 457.277344 876.382812 454.457031 876.382812 451.421875 C 876.382812 447.789062 874.511719 444.96875 871.019531 444.96875 C 869.964844 444.96875 869.117188 445.214844 868.621094 445.535156 C 868.269531 445.78125 868.199219 446.167969 868.199219 447.542969 Z M 865.589844 437.949219 C 865.589844 435.871094 865.554688 435.660156 864.496094 435.023438 L 864.144531 434.8125 C 863.96875 434.707031 863.96875 434.214844 864.144531 434.109375 C 864.957031 433.789062 866.648438 433.332031 867.988281 432.628906 C 868.128906 432.628906 868.269531 432.699219 868.339844 432.839844 C 868.269531 434.074219 868.199219 435.660156 868.199219 437.210938 L 868.199219 443.875 C 868.199219 444.476562 868.339844 444.617188 868.554688 444.617188 C 869.46875 444.085938 870.878906 443.453125 872.609375 443.453125 C 876.628906 443.453125 879.34375 446.484375 879.34375 450.363281 C 879.34375 455.054688 875.957031 458.335938 871.230469 458.335938 C 869.929688 458.335938 868.941406 458.089844 868.234375 457.875 C 867.496094 457.628906 867.035156 457.417969 866.753906 457.417969 C 866.472656 457.417969 866.191406 457.699219 866.011719 457.945312 C 865.976562 457.984375 865.941406 457.984375 865.871094 457.984375 C 865.730469 457.984375 865.589844 457.910156 865.519531 457.773438 C 865.554688 457.277344 865.589844 456.605469 865.589844 454.773438 Z M 865.589844 437.949219 "/>
<path fill-rule="nonzero" fill="#FFFFFF" fill-opacity="1" d="M 887.347656 447.753906 C 889.957031 447.753906 890.734375 447.613281 891.015625 447.402344 C 891.121094 447.332031 891.230469 447.191406 891.230469 446.734375 C 891.230469 445.746094 890.558594 444.511719 888.511719 444.511719 C 886.433594 444.511719 884.632812 446.414062 884.597656 447.578125 C 884.597656 447.652344 884.597656 447.753906 884.84375 447.753906 Z M 885.160156 448.8125 C 884.246094 448.8125 884.210938 448.882812 884.210938 449.765625 C 884.210938 453.328125 886.289062 456.359375 890.066406 456.359375 C 891.230469 456.359375 892.214844 456.007812 893.308594 454.632812 C 893.660156 454.527344 893.910156 454.738281 893.945312 455.054688 C 892.78125 457.453125 890.242188 458.335938 888.40625 458.335938 C 886.117188 458.335938 884.316406 457.347656 883.292969 456.007812 C 882.234375 454.632812 881.8125 452.976562 881.8125 451.421875 C 881.8125 447.085938 884.667969 443.453125 888.902344 443.453125 C 891.933594 443.453125 893.910156 445.535156 893.910156 447.652344 C 893.910156 448.144531 893.835938 448.425781 893.769531 448.566406 C 893.660156 448.777344 893.167969 448.8125 891.6875 448.8125 Z M 885.160156 448.8125 "/>
<path fill-rule="nonzero" fill="#FFFFFF" fill-opacity="1" d="M 895.390625 465.105469 C 895.390625 464.152344 896.023438 463.695312 896.800781 463.695312 L 897.46875 463.695312 C 898.035156 463.695312 898.386719 463.449219 898.636719 463.0625 C 899.65625 461.472656 900.363281 459.992188 900.679688 459.144531 C 900.785156 458.863281 901.03125 458.125 901.03125 457.628906 C 901.03125 456.925781 900.890625 456.5 900.433594 455.195312 L 897.683594 447.648438 C 897.082031 445.992188 896.835938 445.144531 895.601562 444.898438 L 894.71875 444.722656 C 894.507812 444.546875 894.542969 443.945312 894.828125 443.839844 C 895.953125 443.914062 897.011719 443.945312 898.175781 443.945312 C 899.128906 443.945312 900.117188 443.914062 901.242188 443.839844 C 901.527344 443.945312 901.5625 444.546875 901.316406 444.722656 L 900.433594 444.898438 C 899.9375 445.003906 899.65625 445.109375 899.65625 445.359375 C 899.65625 445.78125 900.46875 448.074219 900.679688 448.671875 L 901.808594 451.917969 C 902.019531 452.480469 902.691406 454.351562 902.832031 454.421875 C 902.9375 454.351562 903.5 453.257812 904.136719 451.8125 L 905.335938 449.023438 C 906.109375 447.191406 906.570312 445.886719 906.570312 445.5 C 906.570312 445.25 906.359375 445.003906 905.722656 444.898438 L 904.628906 444.722656 C 904.382812 444.546875 904.417969 443.945312 904.699219 443.839844 C 905.828125 443.914062 906.886719 443.945312 907.804688 443.945312 C 908.683594 443.945312 909.496094 443.914062 910.484375 443.839844 C 910.765625 443.980469 910.800781 444.511719 910.554688 444.722656 L 909.953125 444.828125 C 908.789062 445.039062 908.15625 446.0625 906.957031 448.566406 L 904.984375 452.621094 C 903.820312 454.984375 900.925781 461.121094 899.199219 464.964844 C 898.597656 466.304688 897.753906 466.621094 896.941406 466.621094 C 895.917969 466.621094 895.390625 465.988281 895.390625 465.105469 "/>
<path fill-rule="nonzero" fill="#FFFFFF" fill-opacity="1" d="M 918.101562 444.511719 C 915.773438 444.511719 914.042969 446.734375 914.042969 450.613281 C 914.042969 453.820312 915.492188 457.277344 918.59375 457.277344 C 921.699219 457.277344 922.652344 454.03125 922.652344 451.316406 C 922.652344 448.320312 921.449219 444.511719 918.101562 444.511719 M 925.683594 450.753906 C 925.683594 455.160156 922.652344 458.335938 918.242188 458.335938 C 914.1875 458.335938 911.011719 455.480469 911.011719 451.070312 C 911.011719 446.625 914.363281 443.453125 918.523438 443.453125 C 922.472656 443.453125 925.683594 446.414062 925.683594 450.753906 "/>
<path fill-rule="nonzero" fill="#FFFFFF" fill-opacity="1" d="M 930.371094 447.71875 C 930.371094 446.34375 930.371094 446.167969 929.421875 445.53125 L 929.101562 445.324219 C 928.960938 445.179688 928.960938 444.792969 929.140625 444.6875 C 929.949219 444.40625 931.960938 443.488281 932.664062 442.957031 C 932.808594 442.957031 932.984375 443.03125 933.054688 443.207031 C 932.984375 444.019531 932.984375 444.546875 932.984375 444.863281 C 932.984375 445.074219 933.125 445.25 933.371094 445.25 C 934.851562 444.335938 936.507812 443.453125 938.308594 443.453125 C 941.234375 443.453125 942.433594 445.464844 942.433594 447.824219 L 942.433594 453.890625 C 942.433594 456.429688 942.503906 456.78125 943.773438 456.960938 L 944.550781 457.066406 C 944.796875 457.242188 944.726562 457.839844 944.480469 457.945312 C 943.421875 457.875 942.398438 457.839844 941.164062 457.839844 C 939.894531 457.839844 938.835938 457.875 937.886719 457.945312 C 937.636719 457.839844 937.566406 457.242188 937.8125 457.066406 L 938.484375 456.960938 C 939.789062 456.746094 939.824219 456.429688 939.824219 453.890625 L 939.824219 448.636719 C 939.824219 446.625 938.90625 445.144531 936.507812 445.144531 C 935.167969 445.144531 934.003906 445.710938 933.511719 446.378906 C 933.054688 446.980469 932.984375 447.472656 932.984375 448.496094 L 932.984375 453.890625 C 932.984375 456.429688 933.054688 456.746094 934.324219 456.960938 L 934.957031 457.066406 C 935.203125 457.242188 935.132812 457.839844 934.886719 457.945312 C 933.933594 457.875 932.910156 457.839844 931.679688 457.839844 C 930.40625 457.839844 929.351562 457.875 928.363281 457.945312 C 928.117188 457.839844 928.046875 457.242188 928.292969 457.066406 L 929.035156 456.960938 C 930.339844 456.78125 930.371094 456.429688 930.371094 453.890625 Z M 930.371094 447.71875 "/>
<path fill-rule="nonzero" fill="#FFFFFF" fill-opacity="1" d="M 957.773438 447.402344 C 957.773438 446.699219 957.632812 446.378906 957.386719 446.027344 C 956.855469 445.285156 955.800781 444.546875 954.425781 444.546875 C 951.214844 444.546875 949.558594 447.332031 949.558594 450.402344 C 949.558594 453.609375 951.355469 456.640625 954.8125 456.640625 C 955.765625 456.640625 956.964844 456.21875 957.527344 455.65625 C 957.738281 455.441406 957.773438 454.914062 957.773438 454.351562 Z M 960.382812 452.691406 C 960.382812 455.480469 960.417969 456.785156 961.40625 456.785156 C 961.792969 456.785156 962.394531 456.605469 962.921875 456.429688 C 963.167969 456.5 963.207031 457.382812 962.886719 457.558594 C 961.40625 457.769531 959.21875 458.300781 958.234375 458.6875 C 958.023438 458.6875 957.84375 458.582031 957.84375 458.40625 L 957.84375 457.804688 C 957.84375 457.277344 957.84375 456.855469 957.773438 456.710938 L 957.632812 456.710938 C 956.082031 457.769531 954.882812 458.335938 953.191406 458.335938 C 949.277344 458.335938 946.664062 455.265625 946.664062 451.5625 C 946.664062 446.628906 950.40625 443.453125 955.199219 443.453125 C 956.398438 443.453125 957.175781 443.628906 957.5625 443.769531 C 957.738281 443.769531 957.773438 443.558594 957.773438 443.277344 L 957.773438 437.953125 C 957.773438 435.871094 957.738281 435.660156 956.679688 435.023438 L 956.328125 434.8125 C 956.152344 434.707031 956.152344 434.214844 956.328125 434.109375 C 957.210938 433.824219 958.867188 433.296875 960.136719 432.628906 C 960.277344 432.628906 960.417969 432.699219 960.488281 432.839844 C 960.453125 433.894531 960.382812 435.660156 960.382812 437.210938 Z M 960.382812 452.691406 "/>
<path fill-rule="nonzero" fill="#FFFFFF" fill-opacity="1" d="M 985.140625 444.050781 C 985.421875 444.300781 985.671875 444.863281 985.671875 445.464844 C 985.671875 446.097656 985.316406 446.769531 984.894531 446.769531 C 984.71875 446.769531 984.542969 446.699219 984.402344 446.523438 C 983.625 445.570312 982.320312 444.652344 980.875 444.652344 C 978.40625 444.652344 976.007812 446.589844 976.007812 450.328125 C 976.007812 453.082031 977.910156 456.359375 981.6875 456.359375 C 983.730469 456.359375 984.789062 455.445312 985.601562 454.242188 C 985.882812 454.175781 986.199219 454.421875 986.234375 454.738281 C 985.035156 457.347656 982.390625 458.335938 980.34375 458.335938 C 978.476562 458.335938 976.75 457.734375 975.515625 456.535156 C 974.28125 455.335938 973.46875 453.609375 973.46875 451.316406 C 973.46875 447.507812 976.148438 443.453125 982.003906 443.453125 C 982.8125 443.453125 984.1875 443.628906 985.140625 444.050781 "/>
<path fill-rule="nonzero" fill="#FFFFFF" fill-opacity="1" d="M 992.476562 456.75 C 993.179688 456.75 994.273438 456.21875 994.628906 455.867188 C 995.050781 455.441406 995.050781 454.949219 995.085938 454.210938 L 995.15625 452.128906 C 995.15625 451.738281 995.015625 451.671875 994.804688 451.671875 C 994.589844 451.671875 993.992188 451.8125 993.359375 452.023438 C 991.277344 452.730469 990.253906 453.257812 990.253906 454.632812 C 990.253906 455.230469 990.679688 456.75 992.476562 456.75 M 994.664062 450.542969 C 995.191406 450.363281 995.261719 450.046875 995.261719 449.519531 L 995.296875 447.898438 C 995.332031 446.59375 994.910156 444.828125 992.722656 444.828125 C 991.734375 444.828125 990.539062 445.324219 990.464844 446.414062 C 990.429688 446.980469 990.394531 447.402344 990.113281 447.613281 C 989.585938 448.039062 988.632812 448.285156 988.101562 448.285156 C 987.785156 448.285156 987.609375 448.105469 987.609375 447.789062 C 987.609375 445.957031 991.59375 443.453125 994.167969 443.453125 C 996.707031 443.453125 997.941406 444.933594 997.835938 447.578125 L 997.625 453.714844 C 997.554688 455.335938 997.871094 456.78125 999.246094 456.78125 C 999.601562 456.78125 999.917969 456.679688 1000.128906 456.570312 C 1000.304688 456.464844 1000.480469 456.324219 1000.585938 456.324219 C 1000.726562 456.324219 1000.835938 456.535156 1000.835938 456.78125 C 1000.835938 456.960938 999.601562 458.335938 997.871094 458.335938 C 997.027344 458.335938 996.179688 458.019531 995.578125 457.242188 C 995.4375 457.03125 995.226562 456.75 995.015625 456.75 C 994.769531 456.75 994.34375 457.066406 993.640625 457.453125 C 992.863281 457.875 992.085938 458.335938 991.101562 458.335938 C 990.078125 458.335938 989.230469 458.054688 988.632812 457.523438 C 987.960938 456.925781 987.539062 456.042969 987.539062 455.054688 C 987.539062 453.679688 988.210938 452.867188 990.464844 452.058594 Z M 994.664062 450.542969 "/>
<path fill-rule="nonzero" fill="#FFFFFF" fill-opacity="1" d="M 1004.007812 447.71875 C 1004.007812 446.34375 1004.007812 446.167969 1003.054688 445.53125 L 1002.738281 445.324219 C 1002.597656 445.179688 1002.597656 444.792969 1002.773438 444.6875 C 1003.585938 444.40625 1005.59375 443.488281 1006.300781 442.957031 C 1006.441406 442.957031 1006.617188 443.03125 1006.6875 443.207031 C 1006.617188 444.019531 1006.617188 444.546875 1006.617188 444.863281 C 1006.617188 445.074219 1006.757812 445.25 1007.007812 445.25 C 1008.488281 444.335938 1010.144531 443.453125 1011.941406 443.453125 C 1014.871094 443.453125 1016.070312 445.464844 1016.070312 447.824219 L 1016.070312 453.890625 C 1016.070312 456.429688 1016.140625 456.78125 1017.410156 456.960938 L 1018.1875 457.066406 C 1018.433594 457.242188 1018.359375 457.839844 1018.113281 457.945312 C 1017.058594 457.875 1016.035156 457.839844 1014.800781 457.839844 C 1013.53125 457.839844 1012.472656 457.875 1011.519531 457.945312 C 1011.273438 457.839844 1011.203125 457.242188 1011.449219 457.066406 L 1012.121094 456.960938 C 1013.425781 456.746094 1013.460938 456.429688 1013.460938 453.890625 L 1013.460938 448.636719 C 1013.460938 446.625 1012.542969 445.144531 1010.144531 445.144531 C 1008.804688 445.144531 1007.640625 445.710938 1007.148438 446.378906 C 1006.6875 446.980469 1006.617188 447.472656 1006.617188 448.496094 L 1006.617188 453.890625 C 1006.617188 456.429688 1006.6875 456.746094 1007.957031 456.960938 L 1008.59375 457.066406 C 1008.839844 457.242188 1008.769531 457.839844 1008.523438 457.945312 C 1007.570312 457.875 1006.546875 457.839844 1005.3125 457.839844 C 1004.042969 457.839844 1002.988281 457.875 1001.996094 457.945312 C 1001.75 457.839844 1001.679688 457.242188 1001.929688 457.066406 L 1002.667969 456.960938 C 1003.972656 456.78125 1004.007812 456.429688 1004.007812 453.890625 Z M 1004.007812 447.71875 "/>
<path fill-rule="nonzero" fill="#FFFFFF" fill-opacity="1" d="M 1032.007812 444.050781 C 1032.292969 444.300781 1032.539062 444.863281 1032.539062 445.464844 C 1032.539062 446.097656 1032.1875 446.769531 1031.761719 446.769531 C 1031.585938 446.769531 1031.410156 446.699219 1031.269531 446.523438 C 1030.492188 445.570312 1029.1875 444.652344 1027.742188 444.652344 C 1025.273438 444.652344 1022.875 446.589844 1022.875 450.328125 C 1022.875 453.082031 1024.78125 456.359375 1028.554688 456.359375 C 1030.597656 456.359375 1031.65625 455.445312 1032.46875 454.242188 C 1032.75 454.175781 1033.066406 454.421875 1033.101562 454.738281 C 1031.902344 457.347656 1029.257812 458.335938 1027.214844 458.335938 C 1025.34375 458.335938 1023.617188 457.734375 1022.382812 456.535156 C 1021.148438 455.335938 1020.335938 453.609375 1020.335938 451.316406 C 1020.335938 447.507812 1023.015625 443.453125 1028.871094 443.453125 C 1029.683594 443.453125 1031.058594 443.628906 1032.007812 444.050781 "/>
<path fill-rule="nonzero" fill="#FFFFFF" fill-opacity="1" d="M 1039.945312 447.753906 C 1042.554688 447.753906 1043.328125 447.613281 1043.613281 447.402344 C 1043.714844 447.332031 1043.824219 447.191406 1043.824219 446.734375 C 1043.824219 445.746094 1043.152344 444.511719 1041.105469 444.511719 C 1039.027344 444.511719 1037.226562 446.414062 1037.191406 447.578125 C 1037.191406 447.652344 1037.191406 447.753906 1037.441406 447.753906 Z M 1037.757812 448.8125 C 1036.839844 448.8125 1036.804688 448.882812 1036.804688 449.765625 C 1036.804688 453.328125 1038.886719 456.359375 1042.660156 456.359375 C 1043.824219 456.359375 1044.808594 456.007812 1045.902344 454.632812 C 1046.253906 454.527344 1046.503906 454.738281 1046.539062 455.054688 C 1045.375 457.453125 1042.835938 458.335938 1041.003906 458.335938 C 1038.710938 458.335938 1036.910156 457.347656 1035.886719 456.007812 C 1034.832031 454.632812 1034.40625 452.976562 1034.40625 451.421875 C 1034.40625 447.085938 1037.265625 443.453125 1041.496094 443.453125 C 1044.527344 443.453125 1046.503906 445.535156 1046.503906 447.652344 C 1046.503906 448.144531 1046.433594 448.425781 1046.363281 448.566406 C 1046.253906 448.777344 1045.761719 448.8125 1044.28125 448.8125 Z M 1037.757812 448.8125 "/>
<path fill-rule="nonzero" fill="#FFFFFF" fill-opacity="1" d="M 1050.59375 447.71875 C 1050.59375 446.34375 1050.59375 446.167969 1049.640625 445.53125 L 1049.324219 445.324219 C 1049.183594 445.179688 1049.183594 444.792969 1049.359375 444.6875 C 1050.171875 444.40625 1052.039062 443.488281 1052.921875 442.957031 C 1053.097656 442.992188 1053.203125 443.066406 1053.203125 443.207031 L 1053.203125 445.25 C 1053.203125 445.429688 1053.238281 445.53125 1053.308594 445.570312 C 1054.542969 444.546875 1055.882812 443.453125 1057.191406 443.453125 C 1058.070312 443.453125 1058.777344 444.019531 1058.777344 444.863281 C 1058.777344 446.027344 1057.824219 446.488281 1057.257812 446.488281 C 1056.90625 446.488281 1056.730469 446.378906 1056.484375 446.238281 C 1055.953125 445.886719 1055.425781 445.675781 1054.933594 445.675781 C 1054.367188 445.675781 1053.945312 445.992188 1053.660156 446.378906 C 1053.308594 446.875 1053.203125 447.898438 1053.203125 449.09375 L 1053.203125 453.890625 C 1053.203125 456.429688 1053.273438 456.855469 1054.613281 456.960938 L 1055.882812 457.066406 C 1056.132812 457.242188 1056.0625 457.839844 1055.8125 457.945312 C 1054.15625 457.875 1053.132812 457.839844 1051.898438 457.839844 C 1050.628906 457.839844 1049.574219 457.875 1048.65625 457.945312 C 1048.40625 457.839844 1048.335938 457.242188 1048.582031 457.066406 L 1049.253906 456.960938 C 1050.558594 456.746094 1050.59375 456.429688 1050.59375 453.890625 Z M 1050.59375 447.71875 "/>
<path fill-rule="nonzero" fill="#FFFFFF" fill-opacity="1" d="M 299.652344 404.382812 L 262.214844 404.382812 L 262.214844 390.597656 L 299.652344 390.597656 Z M 288.511719 370.730469 L 273.246094 370.730469 L 228.824219 385.164062 L 228.824219 409.953125 L 273.246094 424.382812 L 288.511719 424.382812 L 332.933594 409.953125 L 332.933594 385.164062 Z M 288.511719 370.730469 "/>
<path fill-rule="nonzero" fill="#FFFFFF" fill-opacity="1" d="M 906.792969 404.382812 L 869.355469 404.382812 L 869.355469 390.597656 L 906.792969 390.597656 Z M 895.65625 370.730469 L 880.386719 370.730469 L 835.96875 370.714844 L 835.96875 424.382812 L 895.65625 424.382812 L 940.078125 409.953125 L 940.078125 385.164062 Z M 895.65625 370.730469 "/>
<path fill-rule="nonzero" fill="#FFFFFF" fill-opacity="1" d="M 219.199219 388.347656 L 219.199219 370.734375 L 114.988281 370.734375 L 114.988281 424.382812 L 148.464844 424.382812 L 148.464844 402.167969 L 219.199219 402.167969 L 219.199219 392.199219 L 148.464844 392.199219 L 148.464844 388.347656 Z M 219.199219 388.347656 "/>
<path fill-rule="nonzero" fill="#FFFFFF" fill-opacity="1" d="M 558.386719 370.59375 L 456.398438 370.59375 L 456.398438 388.207031 L 490.652344 388.207031 L 490.652344 424.382812 L 524.128906 424.382812 L 524.128906 388.207031 L 558.386719 388.207031 Z M 558.386719 370.59375 "/>
<path fill-rule="nonzero" fill="#FFFFFF" fill-opacity="1" d="M 713.101562 370.59375 L 611.113281 370.59375 L 611.113281 388.207031 L 645.367188 388.207031 L 645.367188 424.382812 L 678.847656 424.382812 L 678.847656 388.207031 L 713.101562 388.207031 Z M 713.101562 370.59375 "/>
<path fill-rule="nonzero" fill="#FFFFFF" fill-opacity="1" d="M 792.867188 370.730469 L 792.867188 406.769531 L 756.203125 406.769531 L 756.203125 370.730469 L 722.726562 370.730469 L 722.726562 424.382812 L 826.34375 424.382812 L 826.34375 370.730469 Z M 792.867188 370.730469 "/>
<path fill-rule="nonzero" fill="#FFFFFF" fill-opacity="1" d="M 601.488281 370.730469 L 568.007812 370.730469 L 568.007812 424.382812 L 601.488281 424.382812 Z M 601.488281 370.730469 "/>
<path fill-rule="nonzero" fill="#FFFFFF" fill-opacity="1" d="M 342.558594 370.59375 L 342.558594 424.246094 L 376.035156 424.246094 L 376.035156 409.199219 L 413.292969 409.199219 L 413.292969 424.382812 L 446.773438 424.382812 L 446.773438 409.199219 L 413.292969 398.175781 L 376.035156 398.175781 L 376.035156 388.207031 L 413.292969 388.207031 L 413.292969 398.175781 L 446.773438 398.175781 L 446.773438 370.59375 Z M 342.558594 370.59375 "/>
<path fill-rule="nonzero" fill="#FFFFFF" fill-opacity="1" d="M 1053.914062 388.179688 L 1053.914062 370.566406 L 949.699219 370.566406 L 949.699219 424.214844 L 1053.914062 424.214844 L 1053.914062 406.601562 L 983.179688 406.601562 L 983.179688 402.441406 L 1053.914062 402.441406 L 1053.914062 392.199219 L 983.179688 392.199219 L 983.179688 388.179688 Z M 1053.914062 388.179688 "/>
</svg>
